<svg height="50px" viewBox="-48 0 496 496" width="50px" xmlns="http://www.w3.org/2000/svg" xmlns:xlink="http://www.w3.org/1999/xlink"><linearGradient id="a" gradientUnits="userSpaceOnUse" x1="200" x2="200" y1="496" y2="0"><stop offset="0" stop-color="#9f2fff"/><stop offset="1" stop-color="#0bb1d3"/></linearGradient><path d="m24 240h128c13.230469 0 24-10.769531 24-24v-192c0-13.230469-10.769531-24-24-24h-128c-13.230469 0-24 10.769531-24 24v192c0 13.230469 10.769531 24 24 24zm-8-216c0-4.40625 3.59375-8 8-8h128c4.40625 0 8 3.59375 8 8v192c0 4.40625-3.59375 8-8 8h-128c-4.40625 0-8-3.59375-8-8zm46.632812 128c6.304688 0 12.296876-1.9375 17.367188-5.449219v29.449219h16v-29.449219c5.070312 3.511719 11.0625 5.449219 17.367188 5.449219 16.898437 0 30.632812-13.734375 30.632812-30.632812 0-8.175782-3.183594-15.871094-8.976562-21.65625l-47.023438-47.023438-47.023438 47.023438c-5.792968 5.792968-8.976562 13.480468-8.976562 21.65625 0 16.898437 13.734375 30.632812 30.632812 30.632812zm-10.34375-40.976562 35.710938-35.710938 35.710938 35.710938c2.769531 2.769531 4.289062 6.441406 4.289062 10.34375 0 8.074218-6.558594 14.632812-14.632812 14.632812-3.902344 0-7.574219-1.519531-10.34375-4.289062l-15.023438-15.023438-15.023438 15.023438c-2.769531 2.769531-6.441406 4.289062-10.34375 4.289062-8.074218 0-14.632812-6.558594-14.632812-14.632812 0-3.902344 1.519531-7.574219 4.289062-10.34375zm195.710938 128.976562h128c13.230469 0 24-10.769531 24-24v-192c0-13.230469-10.769531-24-24-24h-128c-13.230469 0-24 10.769531-24 24v192c0 13.230469 10.769531 24 24 24zm-8-216c0-4.40625 3.59375-8 8-8h128c4.40625 0 8 3.59375 8 8v192c0 4.40625-3.59375 8-8 8h-128c-4.40625 0-8-3.59375-8-8zm-216 472h128c13.230469 0 24-10.769531 24-24v-192c0-13.230469-10.769531-24-24-24h-128c-13.230469 0-24 10.769531-24 24v192c0 13.230469 10.769531 24 24 24zm-8-216c0-4.40625 3.59375-8 8-8h128c4.40625 0 8 3.59375 8 8v192c0 4.40625-3.59375 8-8 8h-128c-4.40625 0-8-3.59375-8-8zm232 216h128c13.230469 0 24-10.769531 24-24v-192c0-13.230469-10.769531-24-24-24h-128c-13.230469 0-24 10.769531-24 24v192c0 13.230469 10.769531 24 24 24zm-8-216c0-4.40625 3.59375-8 8-8h128c4.40625 0 8 3.59375 8 8v192c0 4.40625-3.59375 8-8 8h-128c-4.40625 0-8-3.59375-8-8zm72-108.6875 47.023438-47.023438c5.792968-5.792968 8.976562-13.480468 8.976562-21.65625 0-16.898437-13.734375-30.632812-30.632812-30.632812-8.175782 0-15.871094 3.183594-21.65625 8.976562l-3.710938 3.710938-3.710938-3.710938c-5.792968-5.792968-13.480468-8.976562-21.65625-8.976562-16.898437 0-30.632812 13.734375-30.632812 30.632812 0 8.175782 3.183594 15.871094 8.976562 21.65625zm-25.367188-83.3125c3.902344 0 7.574219 1.519531 10.34375 4.289062l15.023438 15.023438 15.023438-15.023438c2.769531-2.769531 6.441406-4.289062 10.34375-4.289062 8.074218 0 14.632812 6.558594 14.632812 14.632812 0 3.902344-1.519531 7.574219-4.289062 10.34375l-35.710938 35.710938-35.710938-35.710938c-2.769531-2.769531-4.289062-6.441406-4.289062-10.34375 0-8.074218 6.558594-14.632812 14.632812-14.632812zm-238.632812-40h-16v-16h16zm80 144h16v16h-16zm144 16h-16v-16h16zm96-160h-16v-16h16zm-221.464844 328-58.535156-68.296875-58.535156 68.296875 58.535156 68.296875zm-58.535156-43.703125 37.464844 43.703125-37.464844 43.703125-37.464844-43.703125zm56-28.296875h-16v-16h16zm-112 144h16v16h-16zm256-40c5.863281 0 11.273438-1.726562 16-4.496094v28.496094h16v-28.496094c4.726562 2.769532 10.136719 4.496094 16 4.496094 17.648438 0 32-14.351562 32-32 0-14.886719-10.222656-27.441406-24.015625-30.992188.007813-.335937.015625-.671874.015625-1.007812 0-17.648438-14.351562-32-32-32s-32 14.351562-32 32c0 .335938.007812.671875.015625 1.007812-13.792969 3.550782-24.015625 16.105469-24.015625 30.992188 0 17.648438 14.351562 32 32 32zm-.238281-48c.007812 0 .007812 0 0 0l13.421875.871094-4.152344-11.457032c-.695312-1.910156-1.03125-3.6875-1.03125-5.414062 0-8.824219 7.175781-16 16-16s16 7.175781 16 16c0 1.726562-.335938 3.503906-1.03125 5.425781l-4.152344 11.453125 12.160156-.742187 1.023438-.136719c8.824219 0 16 7.175781 16 16s-7.175781 16-16 16-16-7.175781-16-16h-16c0 8.824219-7.175781 16-16 16s-16-7.175781-16-16 7.167969-16 15.761719-16zm-15.761719-56h-16v-16h16zm80 144h16v16h-16zm0 0" fill="url(#a)"/></svg>