<svg height="50px" viewBox="0 0 496 496" width="50px" xmlns="http://www.w3.org/2000/svg" xmlns:xlink="http://www.w3.org/1999/xlink"><linearGradient id="a" gradientUnits="userSpaceOnUse" x1="247.9928" x2="247.9928" y1="496" y2="0"><stop offset="0" stop-color="#9f2fff"/><stop offset="1" stop-color="#0bb1d3"/></linearGradient><path d="m.0078125 161.046875c-.4492185-30.855469 18.6484375-57.886719 48.6406255-68.847656 10.28125-3.757813 20.917968-4.925781 31.726562-3.613281 3.808594-49.472657 45.191406-88.585938 95.625-88.585938 28.359375 0 54.265625 12.183594 72.105469 32.558594 18.125-20.527344 44.277343-32.558594 71.894531-32.558594 50.449219 0 91.839844 39.136719 95.625 88.625 6.375-.730469 12.910156-.785156 19.542969.214844 31.480469 4.753906 56.863281 31.25 60.375 62.992187 2.257812 20.480469-4.261719 40.960938-17.894531 56.183594-13.648438 15.25-33.199219 23.984375-53.648438 23.984375h-80v64h80v16h-40v48h-16v-48h-24v120h-16v-200h-88v-32h-48v-16h48v-32h24v-32h16v32h24v16h-48v48h168c15.902344 0 31.113281-6.800781 41.726562-18.65625 10.769532-12.015625 15.707032-27.550781 13.914063-43.75-2.71875-24.664062-22.433594-45.242188-46.855469-48.929688-23.585937-3.535156-46.296875 7.503907-57.792968 28.214844l-13.984376-7.757812c8.769532-15.816406 22.65625-27.128906 38.800782-32.855469-1.96875-42.371094-36.960938-76.265625-79.808594-76.265625-24.183594 0-46.960938 11.152344-62.113281 29.910156 2.90625 4.777344 5.472656 9.824219 7.5625 15.1875l-14.90625 5.824219c-12.0625-30.9375-41.335938-50.921875-74.542969-50.921875-44.113281 0-80 35.886719-80 80 0 7.414062 1.015625 14.753906 3.007812 21.824219l-15.390624 4.351562c-1.601563-5.664062-2.625-11.488281-3.167969-17.367187-9.042969-1.449219-17.714844-.738282-26.304688 2.40625-23.511719 8.601562-38.488281 29.640625-38.144531 53.601562.449219 30.429688 25.558594 55.183594 56 55.183594h72v120h96v16h-32v48h-16v-48h-48v112h-16v-56h-48v56h-16v-56h-32v-16h96v-88h-40v-16h40v-56h-56c-39.136719 0-71.433594-31.832031-71.9921875-70.953125zm366.0078125-78.765625 15.328125-4.5625c-8.007812-26.917969-33.230469-45.71875-61.34375-45.71875v16c21.089844 0 40.007812 14.097656 46.015625 34.28125zm-238.015625 413.71875h16v-16h-16zm144-144v-16h-16v16zm-256 40h-16v16h16zm48 104h16v-16h-16zm-8-208v16h16v-16zm288-120v-16h-16v16zm-64-80h-16v16h16zm-104 112v-16h-16v16zm152 264h16v-16h-16zm128-152v-16h-16v16zm-88 88h16v-16h-16zm-176 32h16v-16h-16zm0 0" fill="url(#a)"/></svg>